<svg xmlns="http://www.w3.org/2000/svg" id="b" viewBox="0 0 141.73 59.71"><defs><style>.d{fill:#fff}</style></defs><g id="c"><path d="M0 18.71v1.56l16.29 5.16 4.43-3.94V10.31l4.82 1.49v11.22l-4.01-1.22v.88l8.8 2.74V9.57l-4.89 1.3s-2.67-.53-5.46-1.76-5.67-2.92-5.76-2.68 1.08 1.01 1.47 2.11c.39 1.1.37 1.32.37 1.32v13.06s-.03.4-.28.57c-.26.16-.85.1-.85.1L0 18.71ZM31.49 13.14s1.17 1.93 1.39 1.93.62-.4 1.17-.4 1.12.53 1.23.7c.11.16.15.31.15.31v6.03s0 .4-.37.4S31.48 21 31.48 21s.94 1.95 1.26 1.95 1.04-.45 1.35-.45.9.24 1 .38c.1.14.34.68.34.68v6.67l4.62-4.62V10.2l-5.71-3.97s-.28-.11-.35.09c-.07.2 1.1 1.25 1.28 1.61.18.37.16 1.08.16 1.08v5.03s-.05.22-.53.22-3.42-1.11-3.42-1.11ZM62.6 23.31l4.62-4.62V4.1L61.51.12s-.28-.11-.35.09c-.07.2 1.1 1.25 1.28 1.61.18.37.16 1.08.16 1.08v20.41ZM91.3 36.97l4.62-4.62v-4.98s0-.82.48-.82c.22 0 .92.21 1.53.6.74.47 1.38 1.14 1.55 1.14.31 0 1.66-.82 1.66-.98s-4-1.04-4.65-1.38c-.61-.32-.58-.92-.58-.92v-8.26l-5.71-3.97s-.28-.11-.36.09c-.07.2 1.1 1.25 1.28 1.61.18.37.16 1.08.16 1.08v21.43ZM23.25 33.66c0 4 3.19 7.59 7.85 9.39v-.84s-3.23-1.05-3.23-7.09c0-5.67 3.23-5.04 3.23-5.04v-.83s-.81-.39-2.13-.39-5.72.78-5.72 4.81ZM40.05 38.99c0-4-3.19-7.59-7.85-9.39v.84s3.23 1.05 3.23 7.09c0 5.67-3.23 5.04-3.23 5.04v.83s.81.39 2.13.39 5.72-.34 5.72-4.81ZM42.21 5.38c0 4.79 2.97 8.28 7.63 10.08v-.84s-3.2-1.5-3.2-7.47c0-6.44 3.2-5.92 3.2-5.92V.39S49.24 0 47.92 0s-5.71.73-5.71 5.38ZM58.66 10.78c0-4.79-2.97-8.28-7.63-10.08v.84s3.2 1.5 3.2 7.47c0 6.44-3.2 5.92-3.2 5.92v.83s.6.39 1.92.39 5.71-.73 5.71-5.38ZM79.12 40.53c0 4 3.19 7.59 7.85 9.39v-.84s-3.23-1.05-3.23-7.09c0-5.67 3.23-5.04 3.23-5.04v-.83s-.81-.39-2.13-.39-5.72.78-5.72 4.81ZM95.92 45.86c0-4-3.19-7.59-7.85-9.39v.84s3.23 1.05 3.23 7.09c0 5.67-3.23 5.04-3.23 5.04v.83s.81.39 2.13.39 5.72 0 5.72-4.81ZM81.8 14s-.28-.11-.35.09c-.07.2 1.28 1.3 1.46 1.67.18.37.16 1.08.16 1.08v4.99l-4.74-1.76v-3.43l-5.89-3.08s-.28-.11-.35.09c-.07.2 1.28 1.31 1.46 1.67.18.37.16 1.08.16 1.08v16.37l4.03-4.03 2.08.77v-.68l-1.59-.59.1-.1v-7.4l4.74 1.76v5.78l-2.86-1.06v.96l2.86 1.06v4.56l4.62-4.62V17.06l-5.89-3.08ZM67.76 36.71l-2.45-1.96-4.07-.07-8.08-2.51v-6.6l-5.71-1.79s-.28-.11-.35.09c-.07.2 1.1 1.25 1.28 1.61s.16 1.08.16 1.08v8.86l2.37-2.32c.4-.38 1.24-.53 2.21-.25l14.64 4.54v-.68Z" class="d"/><path d="M47.29 18.78v.68l2.46 1.75 3.05-.03 9.7 3.04v4.24l-8.04-2.49v.68l12.98 4.01v-5.57l-20.15-6.31zM108.65 7.49l3.13.98v-.69l-7.5-2.36v.69l1.76 1.84 2.61-.46zM126.73 12.48l-2.31-1.6-2.43.11-9.03-2.84v.48c-.04 1.37-.41 5.41-3.43 8.29-3.69 3.52-5.74 3.56-5.74 3.91s6.46.9 10.51-1.87 3.52-6.42 3.15-7.43c-.21-.58-.53-1.14-.75-1.5l10.04 3.16v-.7Z" class="d"/><path d="M116.7 17.26c.17-.11 4.29.61 6.16 2.77s1.63 4.62 1.05 5.56c-.59.94-1.17 1.12-1.8 1.12s-1.26-1.19-2.05-3.15c-.79-1.96-3.61-6.13-3.36-6.29ZM110.6 25.78l-10.86-3.43v.7l10.86 3.42v-.69zM129.96 31.87l-2.42-2.1-4.02.08-11.69-3.69v17.39l4.61-4.61V28.31l13.52 4.26v-.7zM141.73 30.21l-14.82-4.58v-1.22L141.73 29v1.21zM62.87 56.47c0-.2-.06-.35-.17-.47-.11-.12-.27-.17-.48-.17h-.39v1.39h.3c.21 0 .39-.07.53-.2s.21-.32.21-.55Z" class="d"/><path d="M39.54 54.9v4.81h62.67V54.9H39.54Zm12.36 3.09h-1.41v-.28h1.41v.28Zm8.89.91h-1.35v-.16c.12 0 .22-.02.3-.05.08-.02.12-.05.12-.08v-.05c0-.02 0-.04-.01-.05l-.27-.73h-1.14c-.04.11-.08.2-.1.28-.03.08-.05.15-.07.22-.02.07-.03.12-.04.16 0 .04-.01.07-.01.1 0 .06.05.11.14.14.1.03.21.05.33.06v.16h-1.23v-.16s.09-.01.15-.03c.06-.01.11-.03.15-.06.06-.04.11-.08.14-.13.03-.04.07-.11.1-.19l.54-1.38c.2-.51.37-.96.53-1.36h.18l1.08 2.81c.02.06.05.11.08.14.03.04.07.07.12.11.04.02.08.04.14.05.06.01.1.02.14.02v.16Zm9.54-3.09s-.11.01-.2.04c-.09.02-.15.05-.19.07-.05.04-.09.11-.11.22-.02.11-.03.25-.03.41v2.38h-.2l-1.97-2.66v1.68c0 .19.01.33.04.43.02.1.06.17.11.22.04.03.11.06.22.09s.18.04.22.05v.16h-2.24c-.18-.27-.37-.54-.59-.81-.21-.27-.44-.53-.67-.78h-.06v1.13c0 .05 0 .1.03.14.02.04.05.07.1.1.02.01.07.02.14.04s.12.02.17.03v.16h-1.89c-.19-.3-.37-.57-.53-.79-.16-.22-.33-.45-.51-.69h-.33v1.03c0 .05 0 .1.03.14.02.04.05.07.11.09.03.01.08.02.14.03.07 0 .13.01.17.02v.16h-1.38v-.16s.09 0 .16-.02c.07 0 .12-.02.15-.03.04-.02.08-.05.1-.09.02-.04.03-.09.03-.15V56.1c0-.05 0-.1-.02-.14a.171.171 0 0 0-.11-.09c-.04-.01-.09-.03-.15-.04-.06-.01-.11-.02-.16-.02v-.16h1.5c.14 0 .27.01.39.04s.23.07.33.14c.09.06.17.14.23.24.06.1.08.22.08.36 0 .13-.02.24-.06.33a.62.62 0 0 1-.17.25c-.07.07-.15.12-.25.17-.1.05-.2.09-.32.12.16.21.29.39.4.54.11.14.24.32.39.53.07.09.13.16.18.2.05.04.11.08.16.11.04.02.09.04.15.05s.09-.01.11-.02c.05-.02.08-.05.1-.09a.32.32 0 0 0 .03-.14v-2.35c0-.05 0-.1-.03-.14a.179.179 0 0 0-.1-.09.527.527 0 0 0-.15-.05c-.06-.02-.11-.02-.15-.03v-.16h1.35v.16s-.1 0-.16.02c-.06.01-.11.02-.14.03-.05.02-.09.05-.11.09a.32.32 0 0 0-.03.14v1.12h.05c.14-.12.27-.24.41-.36.13-.13.25-.25.36-.38.12-.14.21-.25.26-.33.06-.08.08-.16.08-.22 0-.02-.01-.04-.04-.06-.03-.01-.06-.03-.1-.04-.04 0-.08-.02-.11-.02h-.08v-.16h1.22v.16h-.14c-.02 0-.05 0-.08.02-.05.01-.11.03-.17.06-.06.03-.1.06-.14.1-.16.18-.32.36-.49.56-.17.19-.34.37-.51.52.23.26.42.49.58.68.15.19.31.39.48.61.07.08.13.15.2.2.07.05.12.09.17.11.04.02.09.04.15.05.06.01.1.02.14.02.04 0 .11-.02.2-.04.1-.03.16-.05.18-.07.05-.04.09-.11.11-.2.02-.09.03-.24.03-.45v-1.6c0-.07-.01-.14-.04-.21a.366.366 0 0 0-.1-.16.752.752 0 0 0-.22-.13.602.602 0 0 0-.23-.06v-.16h.93l1.83 2.48v-1.55c0-.19-.01-.33-.04-.44s-.06-.17-.11-.2a.717.717 0 0 0-.21-.09c-.1-.03-.17-.04-.22-.05v-.16h1.32v.16Zm1.68 3.09h-1.46v-.16s.1 0 .18-.01c.08 0 .13-.02.16-.03.05-.02.09-.05.11-.08.02-.03.04-.08.04-.14v-2.36c0-.05 0-.1-.03-.13-.02-.04-.06-.07-.12-.09a.576.576 0 0 0-.17-.05.675.675 0 0 0-.17-.03v-.16h1.46v.16s-.1 0-.17.02a.71.71 0 0 0-.17.04c-.06.02-.1.05-.12.09a.32.32 0 0 0-.03.14v2.35c0 .05.01.1.03.13.02.04.06.07.11.09.03.01.08.03.16.04.07.01.13.02.18.02v.16Zm3.26-1.3s-.09.01-.16.02a.53.53 0 0 0-.16.04c-.05.02-.08.06-.1.1-.02.04-.03.09-.03.15v.78c-.21.09-.43.16-.64.21-.21.05-.42.07-.62.07-.22 0-.43-.04-.63-.12-.2-.08-.38-.19-.53-.33-.15-.15-.27-.32-.36-.53-.09-.21-.13-.44-.13-.7s.04-.48.13-.69c.08-.21.21-.4.36-.55.15-.15.33-.27.54-.36.21-.08.44-.13.68-.13.19 0 .36.02.5.07.14.04.27.1.38.16l.1-.16h.19l.02 1.14h-.2a2.72 2.72 0 0 0-.13-.37 1.35 1.35 0 0 0-.19-.33.823.823 0 0 0-.29-.23.857.857 0 0 0-.41-.09c-.17 0-.33.03-.46.1a1.1 1.1 0 0 0-.35.3c-.1.13-.17.29-.23.47-.05.19-.08.4-.08.64 0 .21.03.4.08.58.05.18.13.34.23.47a1.067 1.067 0 0 0 .88.44c.14 0 .27-.02.39-.06.12-.04.2-.08.25-.13.01-.08.02-.16.02-.24v-.39c0-.06 0-.12-.03-.17a.198.198 0 0 0-.11-.11.799.799 0 0 0-.22-.05c-.09-.01-.16-.02-.21-.02v-.17h1.5v.17Zm3.43-1.79s-.1 0-.16.02c-.06.01-.11.02-.14.03-.05.02-.09.05-.1.09a.32.32 0 0 0-.03.14v2.35c0 .05 0 .1.03.14s.05.07.1.1c.03.01.07.03.14.04.07.01.12.02.16.02v.16h-1.35v-.16s.09 0 .16-.01c.07 0 .12-.02.14-.03.05-.02.08-.05.1-.08.02-.04.03-.09.03-.15v-1.16h-1.53v1.13c0 .05 0 .1.03.14s.05.07.1.1c.03.01.07.03.14.04.07.01.12.02.16.02v.16h-1.35v-.16s.09 0 .16-.01c.07 0 .12-.02.14-.03.05-.02.08-.05.1-.08.02-.04.03-.09.03-.15v-2.35s0-.09-.03-.13a.24.24 0 0 0-.1-.1.527.527 0 0 0-.15-.05c-.06-.02-.11-.02-.15-.03v-.16h1.35v.16s-.1 0-.16.02c-.06.01-.11.02-.14.03-.05.02-.09.05-.1.09a.32.32 0 0 0-.03.14v1.01h1.53v-.99s-.01-.09-.03-.13a.24.24 0 0 0-.1-.1.527.527 0 0 0-.15-.05c-.06-.02-.11-.02-.15-.03v-.16h1.35v.16Zm4.68 2.88c-.21.19-.48.28-.79.28-.15 0-.29-.02-.44-.07-.15-.04-.27-.1-.38-.16l-.1.17h-.18l-.03-1.11h.19c.04.14.08.26.13.37.05.11.12.21.2.31.08.09.17.16.28.22.11.05.23.08.37.08.11 0 .2-.01.28-.04.08-.03.14-.07.19-.12a.605.605 0 0 0 .15-.42.663.663 0 0 0-.44-.62c-.1-.04-.21-.08-.34-.13-.13-.05-.24-.09-.33-.14-.18-.08-.33-.19-.43-.32a.806.806 0 0 1-.15-.45h-.15a.753.753 0 0 0-.08-.2c-.04-.08-.08-.15-.12-.21-.05-.07-.1-.13-.15-.18a.327.327 0 0 0-.16-.09c-.05 0-.11-.01-.18-.01h-.33v2.6c0 .05.01.1.03.14.02.04.06.08.11.1.03.01.08.03.17.04.09.02.16.03.2.03v.16h-1.54v-.16s.11 0 .2-.02c.09 0 .15-.02.18-.03.05-.02.09-.05.11-.09.02-.04.04-.09.04-.15v-2.62h-.31c-.07 0-.14 0-.2.02-.05 0-.1.04-.16.09-.05.05-.1.12-.15.18a.94.94 0 0 0-.12.22c-.04.08-.06.14-.07.19h-.16v-.88h2.84v.71c0-.09.03-.17.06-.25.05-.11.12-.2.22-.29.09-.08.19-.14.31-.19.12-.04.25-.07.38-.07.15 0 .28.02.4.07s.23.1.32.16l.09-.16h.18l.02 1.08h-.19c-.03-.12-.07-.24-.11-.36-.04-.11-.1-.22-.16-.31-.07-.09-.15-.16-.24-.21s-.21-.08-.35-.08c-.14 0-.27.05-.37.14-.1.09-.15.21-.15.34s.03.26.1.35c.07.09.16.17.29.23.11.05.22.1.33.14.11.04.21.08.31.12.09.04.18.09.26.14.08.05.16.11.22.18.07.08.12.16.15.25s.05.2.05.32c0 .29-.11.52-.32.71Zm7.25-.69h-1.41v-.28h1.41V58Z" class="d"/><path d="M58.5 57.57h.98l-.49-1.27-.49 1.27z" class="d"/></g></svg>